<?xml version="1.0" encoding="us-ascii" standalone="no"?><svg xmlns="http://www.w3.org/2000/svg" xmlns:xlink="http://www.w3.org/1999/xlink" contentStyleType="text/css" height="647px" preserveAspectRatio="none" style="width:997px;height:647px;background:#FFFFFF;" version="1.1" viewBox="0 0 997 647" width="997px" zoomAndPan="magnify"><defs/><g><!--class EntityInterest--><g id="elem_EntityInterest"><rect codeLine="2" fill="#F1F1F1" height="145.7813" id="EntityInterest" rx="2.5" ry="2.5" style="stroke:#181818;stroke-width:0.5;" width="162" x="280.5" y="7"/><ellipse cx="311.7" cy="23" fill="#ADD1B2" rx="11" ry="11" style="stroke:#181818;stroke-width:1.0;"/><path d="M314.6688,28.6406 Q314.0906,28.9375 313.45,29.0781 Q312.8094,29.2344 312.1063,29.2344 Q309.6063,29.2344 308.2781,27.5938 Q306.9656,25.9375 306.9656,22.8125 Q306.9656,19.6875 308.2781,18.0313 Q309.6063,16.375 312.1063,16.375 Q312.8094,16.375 313.45,16.5313 Q314.1063,16.6875 314.6688,16.9844 L314.6688,19.7031 Q314.0438,19.125 313.45,18.8594 Q312.8563,18.5781 312.2313,18.5781 Q310.8875,18.5781 310.2,19.6563 Q309.5125,20.7188 309.5125,22.8125 Q309.5125,24.9063 310.2,25.9844 Q310.8875,27.0469 312.2313,27.0469 Q312.8563,27.0469 313.45,26.7813 Q314.0438,26.5 314.6688,25.9219 L314.6688,28.6406 Z " fill="#000000"/><text fill="#000000" font-family="sans-serif" font-size="14" lengthAdjust="spacing" textLength="94" x="329.3" y="27.8467">EntityInterest</text><line style="stroke:#181818;stroke-width:0.5;" x1="281.5" x2="441.5" y1="39" y2="39"/><rect fill="none" height="6" style="stroke:#C82930;stroke-width:1.0;" width="6" x="288.5" y="49.6484"/><text fill="#000000" font-family="sans-serif" font-size="14" lengthAdjust="spacing" textLength="92" x="300.5" y="55.9951">name: String</text><rect fill="none" height="6" style="stroke:#C82930;stroke-width:1.0;" width="6" x="288.5" y="65.9453"/><text fill="#000000" font-family="sans-serif" font-size="14" lengthAdjust="spacing" textLength="136" x="300.5" y="72.292">background: String</text><rect fill="none" height="6" style="stroke:#C82930;stroke-width:1.0;" width="6" x="288.5" y="82.2422"/><text fill="#000000" font-family="sans-serif" font-size="14" lengthAdjust="spacing" textLength="109" x="300.5" y="88.5889">purpose: String</text><rect fill="none" height="6" style="stroke:#C82930;stroke-width:1.0;" width="6" x="288.5" y="98.5391"/><text fill="#000000" font-family="sans-serif" font-size="14" lengthAdjust="spacing" textLength="93" x="300.5" y="104.8857">scope: String</text><rect fill="none" height="6" style="stroke:#C82930;stroke-width:1.0;" width="6" x="288.5" y="114.8359"/><text fill="#000000" font-family="sans-serif" font-size="14" lengthAdjust="spacing" textLength="119" x="300.5" y="121.1826">approach: String</text><rect fill="none" height="6" style="stroke:#C82930;stroke-width:1.0;" width="6" x="288.5" y="131.1328"/><text fill="#000000" font-family="sans-serif" font-size="14" lengthAdjust="spacing" textLength="115" x="300.5" y="137.4795">schedule: String</text><line style="stroke:#181818;stroke-width:0.5;" x1="281.5" x2="441.5" y1="144.7813" y2="144.7813"/></g><!--class Metric--><g id="elem_Metric"><rect codeLine="11" fill="#F1F1F1" height="64.2969" id="Metric" rx="2.5" ry="2.5" style="stroke:#181818;stroke-width:0.5;" width="116" x="129.5" y="48"/><ellipse cx="162.5" cy="64" fill="#ADD1B2" rx="11" ry="11" style="stroke:#181818;stroke-width:1.0;"/><path d="M165.4688,69.6406 Q164.8906,69.9375 164.25,70.0781 Q163.6094,70.2344 162.9063,70.2344 Q160.4063,70.2344 159.0781,68.5938 Q157.7656,66.9375 157.7656,63.8125 Q157.7656,60.6875 159.0781,59.0313 Q160.4063,57.375 162.9063,57.375 Q163.6094,57.375 164.25,57.5313 Q164.9063,57.6875 165.4688,57.9844 L165.4688,60.7031 Q164.8438,60.125 164.25,59.8594 Q163.6563,59.5781 163.0313,59.5781 Q161.6875,59.5781 161,60.6563 Q160.3125,61.7188 160.3125,63.8125 Q160.3125,65.9063 161,66.9844 Q161.6875,68.0469 163.0313,68.0469 Q163.6563,68.0469 164.25,67.7813 Q164.8438,67.5 165.4688,66.9219 L165.4688,69.6406 Z " fill="#000000"/><text fill="#000000" font-family="sans-serif" font-size="14" lengthAdjust="spacing" textLength="44" x="180.5" y="68.8467">Metric</text><line style="stroke:#181818;stroke-width:0.5;" x1="130.5" x2="244.5" y1="80" y2="80"/><rect fill="none" height="6" style="stroke:#C82930;stroke-width:1.0;" width="6" x="137.5" y="90.6484"/><text fill="#000000" font-family="sans-serif" font-size="14" lengthAdjust="spacing" textLength="90" x="149.5" y="96.9951">value: String</text><line style="stroke:#181818;stroke-width:0.5;" x1="130.5" x2="244.5" y1="104.2969" y2="104.2969"/></g><!--class Objective--><g id="elem_Objective"><rect codeLine="15" fill="#F1F1F1" height="64.2969" id="Objective" rx="2.5" ry="2.5" style="stroke:#181818;stroke-width:0.5;" width="156" x="283.5" y="245"/><ellipse cx="324.15" cy="261" fill="#ADD1B2" rx="11" ry="11" style="stroke:#181818;stroke-width:1.0;"/><path d="M327.1188,266.6406 Q326.5406,266.9375 325.9,267.0781 Q325.2594,267.2344 324.5563,267.2344 Q322.0563,267.2344 320.7281,265.5938 Q319.4156,263.9375 319.4156,260.8125 Q319.4156,257.6875 320.7281,256.0313 Q322.0563,254.375 324.5563,254.375 Q325.2594,254.375 325.9,254.5313 Q326.5563,254.6875 327.1188,254.9844 L327.1188,257.7031 Q326.4938,257.125 325.9,256.8594 Q325.3063,256.5781 324.6813,256.5781 Q323.3375,256.5781 322.65,257.6563 Q321.9625,258.7188 321.9625,260.8125 Q321.9625,262.9063 322.65,263.9844 Q323.3375,265.0469 324.6813,265.0469 Q325.3063,265.0469 325.9,264.7813 Q326.4938,264.5 327.1188,263.9219 L327.1188,266.6406 Z " fill="#000000"/><text fill="#000000" font-family="sans-serif" font-size="14" lengthAdjust="spacing" textLength="67" x="343.85" y="265.8467">Objective</text><line style="stroke:#181818;stroke-width:0.5;" x1="284.5" x2="438.5" y1="277" y2="277"/><rect fill="none" height="6" style="stroke:#C82930;stroke-width:1.0;" width="6" x="291.5" y="287.6484"/><text fill="#000000" font-family="sans-serif" font-size="14" lengthAdjust="spacing" textLength="130" x="303.5" y="293.9951">description: String</text><line style="stroke:#181818;stroke-width:0.5;" x1="284.5" x2="438.5" y1="301.2969" y2="301.2969"/></g><!--class Decision--><g id="elem_Decision"><rect codeLine="19" fill="#F1F1F1" height="96.8906" id="Decision" rx="2.5" ry="2.5" style="stroke:#181818;stroke-width:0.5;" width="156" x="283.5" y="386"/><ellipse cx="326.85" cy="402" fill="#ADD1B2" rx="11" ry="11" style="stroke:#181818;stroke-width:1.0;"/><path d="M329.8188,407.6406 Q329.2406,407.9375 328.6,408.0781 Q327.9594,408.2344 327.2563,408.2344 Q324.7563,408.2344 323.4281,406.5938 Q322.1156,404.9375 322.1156,401.8125 Q322.1156,398.6875 323.4281,397.0313 Q324.7563,395.375 327.2563,395.375 Q327.9594,395.375 328.6,395.5313 Q329.2563,395.6875 329.8188,395.9844 L329.8188,398.7031 Q329.1938,398.125 328.6,397.8594 Q328.0063,397.5781 327.3813,397.5781 Q326.0375,397.5781 325.35,398.6563 Q324.6625,399.7188 324.6625,401.8125 Q324.6625,403.9063 325.35,404.9844 Q326.0375,406.0469 327.3813,406.0469 Q328.0063,406.0469 328.6,405.7813 Q329.1938,405.5 329.8188,404.9219 L329.8188,407.6406 Z " fill="#000000"/><text fill="#000000" font-family="sans-serif" font-size="14" lengthAdjust="spacing" textLength="61" x="347.15" y="406.8467">Decision</text><line style="stroke:#181818;stroke-width:0.5;" x1="284.5" x2="438.5" y1="418" y2="418"/><rect fill="none" height="6" style="stroke:#C82930;stroke-width:1.0;" width="6" x="291.5" y="428.6484"/><text fill="#000000" font-family="sans-serif" font-size="14" lengthAdjust="spacing" textLength="110" x="303.5" y="434.9951">element: String</text><rect fill="none" height="6" style="stroke:#C82930;stroke-width:1.0;" width="6" x="291.5" y="444.9453"/><text fill="#000000" font-family="sans-serif" font-size="14" lengthAdjust="spacing" textLength="130" x="303.5" y="451.292">description: String</text><rect fill="none" height="6" style="stroke:#C82930;stroke-width:1.0;" width="6" x="291.5" y="461.2422"/><text fill="#000000" font-family="sans-serif" font-size="14" lengthAdjust="spacing" textLength="107" x="303.5" y="467.5889">solution: String</text><line style="stroke:#181818;stroke-width:0.5;" x1="284.5" x2="438.5" y1="474.8906" y2="474.8906"/></g><!--class Rationale--><g id="elem_Rationale"><rect codeLine="25" fill="#F1F1F1" height="80.5938" id="Rationale" rx="2.5" ry="2.5" style="stroke:#181818;stroke-width:0.5;" width="179" x="7" y="394"/><ellipse cx="58.25" cy="410" fill="#ADD1B2" rx="11" ry="11" style="stroke:#181818;stroke-width:1.0;"/><path d="M61.2188,415.6406 Q60.6406,415.9375 60,416.0781 Q59.3594,416.2344 58.6563,416.2344 Q56.1563,416.2344 54.8281,414.5938 Q53.5156,412.9375 53.5156,409.8125 Q53.5156,406.6875 54.8281,405.0313 Q56.1563,403.375 58.6563,403.375 Q59.3594,403.375 60,403.5313 Q60.6563,403.6875 61.2188,403.9844 L61.2188,406.7031 Q60.5938,406.125 60,405.8594 Q59.4063,405.5781 58.7813,405.5781 Q57.4375,405.5781 56.75,406.6563 Q56.0625,407.7188 56.0625,409.8125 Q56.0625,411.9063 56.75,412.9844 Q57.4375,414.0469 58.7813,414.0469 Q59.4063,414.0469 60,413.7813 Q60.5938,413.5 61.2188,412.9219 L61.2188,415.6406 Z " fill="#000000"/><text fill="#000000" font-family="sans-serif" font-size="14" lengthAdjust="spacing" textLength="68" x="78.75" y="414.8467">Rationale</text><line style="stroke:#181818;stroke-width:0.5;" x1="8" x2="185" y1="426" y2="426"/><rect fill="none" height="6" style="stroke:#C82930;stroke-width:1.0;" width="6" x="15" y="436.6484"/><text fill="#000000" font-family="sans-serif" font-size="14" lengthAdjust="spacing" textLength="130" x="27" y="442.9951">description: String</text><rect fill="none" height="6" style="stroke:#C82930;stroke-width:1.0;" width="6" x="15" y="452.9453"/><text fill="#000000" font-family="sans-serif" font-size="14" lengthAdjust="spacing" textLength="153" x="27" y="459.292">consequences: String</text><line style="stroke:#181818;stroke-width:0.5;" x1="8" x2="185" y1="466.5938" y2="466.5938"/></g><!--class Tradeoff--><g id="elem_Tradeoff"><rect codeLine="30" fill="#F1F1F1" height="80.5938" id="Tradeoff" rx="2.5" ry="2.5" style="stroke:#181818;stroke-width:0.5;" width="156" x="283.5" y="560"/><ellipse cx="326.85" cy="576" fill="#ADD1B2" rx="11" ry="11" style="stroke:#181818;stroke-width:1.0;"/><path d="M329.8188,581.6406 Q329.2406,581.9375 328.6,582.0781 Q327.9594,582.2344 327.2563,582.2344 Q324.7563,582.2344 323.4281,580.5938 Q322.1156,578.9375 322.1156,575.8125 Q322.1156,572.6875 323.4281,571.0313 Q324.7563,569.375 327.2563,569.375 Q327.9594,569.375 328.6,569.5313 Q329.2563,569.6875 329.8188,569.9844 L329.8188,572.7031 Q329.1938,572.125 328.6,571.8594 Q328.0063,571.5781 327.3813,571.5781 Q326.0375,571.5781 325.35,572.6563 Q324.6625,573.7188 324.6625,575.8125 Q324.6625,577.9063 325.35,578.9844 Q326.0375,580.0469 327.3813,580.0469 Q328.0063,580.0469 328.6,579.7813 Q329.1938,579.5 329.8188,578.9219 L329.8188,581.6406 Z " fill="#000000"/><text fill="#000000" font-family="sans-serif" font-size="14" lengthAdjust="spacing" textLength="61" x="347.15" y="580.8467">Tradeoff</text><line style="stroke:#181818;stroke-width:0.5;" x1="284.5" x2="438.5" y1="592" y2="592"/><rect fill="none" height="6" style="stroke:#C82930;stroke-width:1.0;" width="6" x="291.5" y="602.6484"/><text fill="#000000" font-family="sans-serif" font-size="14" lengthAdjust="spacing" textLength="82" x="303.5" y="608.9951">type: String</text><rect fill="none" height="6" style="stroke:#C82930;stroke-width:1.0;" width="6" x="291.5" y="618.9453"/><text fill="#000000" font-family="sans-serif" font-size="14" lengthAdjust="spacing" textLength="130" x="303.5" y="625.292">description: String</text><line style="stroke:#181818;stroke-width:0.5;" x1="284.5" x2="438.5" y1="632.5938" y2="632.5938"/></g><!--class Viewpoint--><g id="elem_Viewpoint"><rect codeLine="35" fill="#F1F1F1" height="96.8906" id="Viewpoint" rx="2.5" ry="2.5" style="stroke:#181818;stroke-width:0.5;" width="141" x="574" y="386"/><ellipse cx="606.55" cy="402" fill="#ADD1B2" rx="11" ry="11" style="stroke:#181818;stroke-width:1.0;"/><path d="M609.5188,407.6406 Q608.9406,407.9375 608.3,408.0781 Q607.6594,408.2344 606.9563,408.2344 Q604.4563,408.2344 603.1281,406.5938 Q601.8156,404.9375 601.8156,401.8125 Q601.8156,398.6875 603.1281,397.0313 Q604.4563,395.375 606.9563,395.375 Q607.6594,395.375 608.3,395.5313 Q608.9563,395.6875 609.5188,395.9844 L609.5188,398.7031 Q608.8938,398.125 608.3,397.8594 Q607.7063,397.5781 607.0813,397.5781 Q605.7375,397.5781 605.05,398.6563 Q604.3625,399.7188 604.3625,401.8125 Q604.3625,403.9063 605.05,404.9844 Q605.7375,406.0469 607.0813,406.0469 Q607.7063,406.0469 608.3,405.7813 Q608.8938,405.5 609.5188,404.9219 L609.5188,407.6406 Z " fill="#000000"/><text fill="#000000" font-family="sans-serif" font-size="14" lengthAdjust="spacing" textLength="70" x="624.45" y="406.8467">Viewpoint</text><line style="stroke:#181818;stroke-width:0.5;" x1="575" x2="714" y1="418" y2="418"/><rect fill="none" height="6" style="stroke:#C82930;stroke-width:1.0;" width="6" x="582" y="428.6484"/><text fill="#000000" font-family="sans-serif" font-size="14" lengthAdjust="spacing" textLength="92" x="594" y="434.9951">name: String</text><rect fill="none" height="6" style="stroke:#C82930;stroke-width:1.0;" width="6" x="582" y="444.9453"/><text fill="#000000" font-family="sans-serif" font-size="14" lengthAdjust="spacing" textLength="115" x="594" y="451.292">overview: String</text><rect fill="none" height="6" style="stroke:#C82930;stroke-width:1.0;" width="6" x="582" y="461.2422"/><text fill="#000000" font-family="sans-serif" font-size="14" lengthAdjust="spacing" textLength="99" x="594" y="467.5889">source: String</text><line style="stroke:#181818;stroke-width:0.5;" x1="575" x2="714" y1="474.8906" y2="474.8906"/></g><!--class ModelKinds--><g id="elem_ModelKinds"><rect codeLine="41" fill="#F1F1F1" height="96.8906" id="ModelKinds" rx="2.5" ry="2.5" style="stroke:#181818;stroke-width:0.5;" width="157" x="812" y="386"/><ellipse cx="846.8" cy="402" fill="#ADD1B2" rx="11" ry="11" style="stroke:#181818;stroke-width:1.0;"/><path d="M849.7688,407.6406 Q849.1906,407.9375 848.55,408.0781 Q847.9094,408.2344 847.2063,408.2344 Q844.7063,408.2344 843.3781,406.5938 Q842.0656,404.9375 842.0656,401.8125 Q842.0656,398.6875 843.3781,397.0313 Q844.7063,395.375 847.2063,395.375 Q847.9094,395.375 848.55,395.5313 Q849.2063,395.6875 849.7688,395.9844 L849.7688,398.7031 Q849.1438,398.125 848.55,397.8594 Q847.9563,397.5781 847.3313,397.5781 Q845.9875,397.5781 845.3,398.6563 Q844.6125,399.7188 844.6125,401.8125 Q844.6125,403.9063 845.3,404.9844 Q845.9875,406.0469 847.3313,406.0469 Q847.9563,406.0469 848.55,405.7813 Q849.1438,405.5 849.7688,404.9219 L849.7688,407.6406 Z " fill="#000000"/><text fill="#000000" font-family="sans-serif" font-size="14" lengthAdjust="spacing" textLength="81" x="865.2" y="406.8467">ModelKinds</text><line style="stroke:#181818;stroke-width:0.5;" x1="813" x2="968" y1="418" y2="418"/><rect fill="none" height="6" style="stroke:#C82930;stroke-width:1.0;" width="6" x="820" y="428.6484"/><text fill="#000000" font-family="sans-serif" font-size="14" lengthAdjust="spacing" textLength="131" x="832" y="434.9951">metaModel: String</text><rect fill="none" height="6" style="stroke:#C82930;stroke-width:1.0;" width="6" x="820" y="444.9453"/><text fill="#000000" font-family="sans-serif" font-size="14" lengthAdjust="spacing" textLength="122" x="832" y="451.292">templates: String</text><rect fill="none" height="6" style="stroke:#C82930;stroke-width:1.0;" width="6" x="820" y="461.2422"/><text fill="#000000" font-family="sans-serif" font-size="14" lengthAdjust="spacing" textLength="118" x="832" y="467.5889">language: String</text><line style="stroke:#181818;stroke-width:0.5;" x1="813" x2="968" y1="474.8906" y2="474.8906"/></g><!--class Concern--><g id="elem_Concern"><rect codeLine="47" fill="#F1F1F1" height="64.2969" id="Concern" rx="2.5" ry="2.5" style="stroke:#181818;stroke-width:0.5;" width="125" x="582" y="245"/><ellipse cx="611.85" cy="261" fill="#ADD1B2" rx="11" ry="11" style="stroke:#181818;stroke-width:1.0;"/><path d="M614.8188,266.6406 Q614.2406,266.9375 613.6,267.0781 Q612.9594,267.2344 612.2563,267.2344 Q609.7563,267.2344 608.4281,265.5938 Q607.1156,263.9375 607.1156,260.8125 Q607.1156,257.6875 608.4281,256.0313 Q609.7563,254.375 612.2563,254.375 Q612.9594,254.375 613.6,254.5313 Q614.2563,254.6875 614.8188,254.9844 L614.8188,257.7031 Q614.1938,257.125 613.6,256.8594 Q613.0063,256.5781 612.3813,256.5781 Q611.0375,256.5781 610.35,257.6563 Q609.6625,258.7188 609.6625,260.8125 Q609.6625,262.9063 610.35,263.9844 Q611.0375,265.0469 612.3813,265.0469 Q613.0063,265.0469 613.6,264.7813 Q614.1938,264.5 614.8188,263.9219 L614.8188,266.6406 Z " fill="#000000"/><text fill="#000000" font-family="sans-serif" font-size="14" lengthAdjust="spacing" textLength="60" x="629.15" y="265.8467">Concern</text><line style="stroke:#181818;stroke-width:0.5;" x1="583" x2="706" y1="277" y2="277"/><rect fill="none" height="6" style="stroke:#C82930;stroke-width:1.0;" width="6" x="590" y="287.6484"/><text fill="#000000" font-family="sans-serif" font-size="14" lengthAdjust="spacing" textLength="99" x="602" y="293.9951">matter: String</text><line style="stroke:#181818;stroke-width:0.5;" x1="583" x2="706" y1="301.2969" y2="301.2969"/></g><!--class Stakeholder--><g id="elem_Stakeholder"><rect codeLine="51" fill="#F1F1F1" height="80.5938" id="Stakeholder" rx="2.5" ry="2.5" style="stroke:#181818;stroke-width:0.5;" width="118" x="585.5" y="39.5"/><ellipse cx="600.5" cy="55.5" fill="#ADD1B2" rx="11" ry="11" style="stroke:#181818;stroke-width:1.0;"/><path d="M603.4688,61.1406 Q602.8906,61.4375 602.25,61.5781 Q601.6094,61.7344 600.9063,61.7344 Q598.4063,61.7344 597.0781,60.0938 Q595.7656,58.4375 595.7656,55.3125 Q595.7656,52.1875 597.0781,50.5313 Q598.4063,48.875 600.9063,48.875 Q601.6094,48.875 602.25,49.0313 Q602.9063,49.1875 603.4688,49.4844 L603.4688,52.2031 Q602.8438,51.625 602.25,51.3594 Q601.6563,51.0781 601.0313,51.0781 Q599.6875,51.0781 599,52.1563 Q598.3125,53.2188 598.3125,55.3125 Q598.3125,57.4063 599,58.4844 Q599.6875,59.5469 601.0313,59.5469 Q601.6563,59.5469 602.25,59.2813 Q602.8438,59 603.4688,58.4219 L603.4688,61.1406 Z " fill="#000000"/><text fill="#000000" font-family="sans-serif" font-size="14" lengthAdjust="spacing" textLength="86" x="614.5" y="60.3467">Stakeholder</text><line style="stroke:#181818;stroke-width:0.5;" x1="586.5" x2="702.5" y1="71.5" y2="71.5"/><rect fill="none" height="6" style="stroke:#C82930;stroke-width:1.0;" width="6" x="593.5" y="82.1484"/><text fill="#000000" font-family="sans-serif" font-size="14" lengthAdjust="spacing" textLength="92" x="605.5" y="88.4951">nome: String</text><rect fill="none" height="6" style="stroke:#C82930;stroke-width:1.0;" width="6" x="593.5" y="98.4453"/><text fill="#000000" font-family="sans-serif" font-size="14" lengthAdjust="spacing" textLength="82" x="605.5" y="104.792">type: String</text><line style="stroke:#181818;stroke-width:0.5;" x1="586.5" x2="702.5" y1="112.0938" y2="112.0938"/></g><!--class View--><g id="elem_View"><rect codeLine="56" fill="#F1F1F1" height="64.2969" id="View" rx="2.5" ry="2.5" style="stroke:#181818;stroke-width:0.5;" width="118" x="585.5" y="568.5"/><ellipse cx="623.9" cy="584.5" fill="#ADD1B2" rx="11" ry="11" style="stroke:#181818;stroke-width:1.0;"/><path d="M626.8688,590.1406 Q626.2906,590.4375 625.65,590.5781 Q625.0094,590.7344 624.3063,590.7344 Q621.8063,590.7344 620.4781,589.0938 Q619.1656,587.4375 619.1656,584.3125 Q619.1656,581.1875 620.4781,579.5313 Q621.8063,577.875 624.3063,577.875 Q625.0094,577.875 625.65,578.0313 Q626.3063,578.1875 626.8688,578.4844 L626.8688,581.2031 Q626.2438,580.625 625.65,580.3594 Q625.0563,580.0781 624.4313,580.0781 Q623.0875,580.0781 622.4,581.1563 Q621.7125,582.2188 621.7125,584.3125 Q621.7125,586.4063 622.4,587.4844 Q623.0875,588.5469 624.4313,588.5469 Q625.0563,588.5469 625.65,588.2813 Q626.2438,588 626.8688,587.4219 L626.8688,590.1406 Z " fill="#000000"/><text fill="#000000" font-family="sans-serif" font-size="14" lengthAdjust="spacing" textLength="34" x="643.1" y="589.3467">View</text><line style="stroke:#181818;stroke-width:0.5;" x1="586.5" x2="702.5" y1="600.5" y2="600.5"/><rect fill="none" height="6" style="stroke:#C82930;stroke-width:1.0;" width="6" x="593.5" y="611.1484"/><text fill="#000000" font-family="sans-serif" font-size="14" lengthAdjust="spacing" textLength="92" x="605.5" y="617.4951">name: String</text><line style="stroke:#181818;stroke-width:0.5;" x1="586.5" x2="702.5" y1="624.7969" y2="624.7969"/></g><!--class Model--><g id="elem_Model"><rect codeLine="60" fill="#F1F1F1" height="64.2969" id="Model" rx="2.5" ry="2.5" style="stroke:#181818;stroke-width:0.5;" width="182" x="808.5" y="568.5"/><ellipse cx="873.75" cy="584.5" fill="#ADD1B2" rx="11" ry="11" style="stroke:#181818;stroke-width:1.0;"/><path d="M876.7188,590.1406 Q876.1406,590.4375 875.5,590.5781 Q874.8594,590.7344 874.1563,590.7344 Q871.6563,590.7344 870.3281,589.0938 Q869.0156,587.4375 869.0156,584.3125 Q869.0156,581.1875 870.3281,579.5313 Q871.6563,577.875 874.1563,577.875 Q874.8594,577.875 875.5,578.0313 Q876.1563,578.1875 876.7188,578.4844 L876.7188,581.2031 Q876.0938,580.625 875.5,580.3594 Q874.9063,580.0781 874.2813,580.0781 Q872.9375,580.0781 872.25,581.1563 Q871.5625,582.2188 871.5625,584.3125 Q871.5625,586.4063 872.25,587.4844 Q872.9375,588.5469 874.2813,588.5469 Q874.9063,588.5469 875.5,588.2813 Q876.0938,588 876.7188,587.4219 L876.7188,590.1406 Z " fill="#000000"/><text fill="#000000" font-family="sans-serif" font-size="14" lengthAdjust="spacing" textLength="43" x="894.25" y="589.3467">Model</text><line style="stroke:#181818;stroke-width:0.5;" x1="809.5" x2="989.5" y1="600.5" y2="600.5"/><rect fill="none" height="6" style="stroke:#C82930;stroke-width:1.0;" width="6" x="816.5" y="611.1484"/><text fill="#000000" font-family="sans-serif" font-size="14" lengthAdjust="spacing" textLength="156" x="828.5" y="617.4951">representation: String</text><line style="stroke:#181818;stroke-width:0.5;" x1="809.5" x2="989.5" y1="624.7969" y2="624.7969"/></g><!--link EntityInterest to Objective--><g id="link_EntityInterest_Objective"><path codeLine="64" d="M361.5,153.06 C361.5,184.74 361.5,220.27 361.5,244.96 " fill="none" id="EntityInterest-Objective" style="stroke:#181818;stroke-width:1.0;"/><polygon fill="#000000" points="366.5,204.0664,369.4389,195.0213,363.5611,195.0213,366.5,204.0664" style="stroke:#000000;stroke-width:1.0;"/><text fill="#000000" font-family="sans-serif" font-size="13" lengthAdjust="spacing" textLength="23" x="375.5" y="203.5669">has</text><text fill="#000000" font-family="sans-serif" font-size="13" lengthAdjust="spacing" textLength="8" x="353.1188" y="172.822">1</text><text fill="#000000" font-family="sans-serif" font-size="13" lengthAdjust="spacing" textLength="23" x="336.1281" y="233.8549">1..*</text></g><!--link EntityInterest to Stakeholder--><g id="link_EntityInterest_Stakeholder"><path codeLine="65" d="M442.6,80 C488.17,80 544.03,80 585.43,80 " fill="none" id="EntityInterest-Stakeholder" style="stroke:#181818;stroke-width:1.0;"/><polygon fill="#000000" points="460,68.5664,469.0451,71.5053,469.0451,65.6275,460,68.5664" style="stroke:#000000;stroke-width:1.0;"/><text fill="#000000" font-family="sans-serif" font-size="13" lengthAdjust="spacing" textLength="93" x="474" y="73.0669">has interest in</text><text fill="#000000" font-family="sans-serif" font-size="13" lengthAdjust="spacing" textLength="8" x="450.4452" y="76.3917">1</text><text fill="#000000" font-family="sans-serif" font-size="13" lengthAdjust="spacing" textLength="7" x="570.4132" y="76.1405">*</text></g><!--link Metric to EntityInterest--><g id="link_Metric_EntityInterest"><path codeLine="66" d="M245.61,80 C257.23,80 268.85,80 280.47,80 " fill="none" id="Metric-EntityInterest" style="stroke:#181818;stroke-width:1.0;"/><text fill="#000000" font-family="sans-serif" font-size="13" lengthAdjust="spacing" textLength="7" x="253.5038" y="76.0954">*</text><text fill="#000000" font-family="sans-serif" font-size="13" lengthAdjust="spacing" textLength="8" x="264.6313" y="76.3917">1</text></g><!--link Stakeholder to Concern--><g id="link_Stakeholder_Concern"><path codeLine="67" d="M644.5,120.93 C644.5,157.59 644.5,211.17 644.5,244.78 " fill="none" id="Stakeholder-Concern" style="stroke:#181818;stroke-width:1.0;"/><polygon fill="#000000" points="650.5,186.5664,647.5611,195.6115,653.4389,195.6115,650.5,186.5664" style="stroke:#000000;stroke-width:1.0;"/><text fill="#000000" font-family="sans-serif" font-size="13" lengthAdjust="spacing" textLength="88" x="658.5" y="196.0669">is a matter of</text><text fill="#000000" font-family="sans-serif" font-size="13" lengthAdjust="spacing" textLength="91" x="650.5" y="211.1997">importance to</text><text fill="#000000" font-family="sans-serif" font-size="13" lengthAdjust="spacing" textLength="7" x="636.9859" y="140.1496">*</text><text fill="#000000" font-family="sans-serif" font-size="13" lengthAdjust="spacing" textLength="7" x="636.8109" y="234.0109">*</text></g><!--link Concern to Viewpoint--><g id="link_Concern_Viewpoint"><path codeLine="68" d="M644.5,309.09 C644.5,331.07 644.5,360.95 644.5,385.91 " fill="none" id="Concern-Viewpoint" style="stroke:#181818;stroke-width:1.0;"/><polygon fill="#000000" points="649.5,342.5664,646.5611,351.6115,652.4389,351.6115,649.5,342.5664" style="stroke:#000000;stroke-width:1.0;"/><text fill="#000000" font-family="sans-serif" font-size="13" lengthAdjust="spacing" textLength="46" x="658.5" y="352.0669">frames</text><text fill="#000000" font-family="sans-serif" font-size="13" lengthAdjust="spacing" textLength="23" x="619.1281" y="329.3054">1..*</text><text fill="#000000" font-family="sans-serif" font-size="13" lengthAdjust="spacing" textLength="8" x="635.9375" y="375.1063">1</text></g><!--link Viewpoint to View--><g id="link_Viewpoint_View"><path codeLine="69" d="M644.5,483.38 C644.5,510.79 644.5,544.41 644.5,568.4 " fill="none" id="Viewpoint-View" style="stroke:#181818;stroke-width:1.0;"/><polygon fill="#000000" points="649.5,526.5664,652.4389,517.5213,646.5611,517.5213,649.5,526.5664" style="stroke:#000000;stroke-width:1.0;"/><text fill="#000000" font-family="sans-serif" font-size="13" lengthAdjust="spacing" textLength="52" x="658.5" y="526.0669">governs</text><text fill="#000000" font-family="sans-serif" font-size="13" lengthAdjust="spacing" textLength="8" x="635.9625" y="503.0392">1</text><text fill="#000000" font-family="sans-serif" font-size="13" lengthAdjust="spacing" textLength="23" x="619.1281" y="557.2825">1..*</text></g><!--link Viewpoint to ModelKinds--><g id="link_Viewpoint_ModelKinds"><path codeLine="70" d="M715.32,434.5 C745.56,434.5 780.95,434.5 811.98,434.5 " fill="none" id="Viewpoint-ModelKinds" style="stroke:#181818;stroke-width:1.0;"/><polygon fill="#000000" points="742.5,423.0664,733.4549,420.1275,733.4549,426.0053,742.5,423.0664" style="stroke:#000000;stroke-width:1.0;"/><text fill="#000000" font-family="sans-serif" font-size="13" lengthAdjust="spacing" textLength="47" x="746.5" y="427.5669">include</text><text fill="#000000" font-family="sans-serif" font-size="13" lengthAdjust="spacing" textLength="8" x="723.0358" y="430.8059">1</text><text fill="#000000" font-family="sans-serif" font-size="13" lengthAdjust="spacing" textLength="23" x="780.9626" y="447.2456">1..*</text></g><!--link Objective to Decision--><g id="link_Objective_Decision"><path codeLine="71" d="M361.5,309.09 C361.5,331.07 361.5,360.95 361.5,385.91 " fill="none" id="Objective-Decision" style="stroke:#181818;stroke-width:1.0;"/><polygon fill="#000000" points="366.5,352.5664,369.4389,343.5213,363.5611,343.5213,366.5,352.5664" style="stroke:#000000;stroke-width:1.0;"/><text fill="#000000" font-family="sans-serif" font-size="13" lengthAdjust="spacing" textLength="36" x="375.5" y="352.0669">guide</text><text fill="#000000" font-family="sans-serif" font-size="13" lengthAdjust="spacing" textLength="8" x="352.675" y="329.3054">1</text><text fill="#000000" font-family="sans-serif" font-size="13" lengthAdjust="spacing" textLength="7" x="354.0078" y="375.1063">*</text></g><!--link Rationale to Decision--><g id="link_Rationale_Decision"><path codeLine="72" d="M186.22,434.5 C217.75,434.5 252.9,434.5 283.4,434.5 " fill="none" id="Rationale-Decision" style="stroke:#181818;stroke-width:1.0;"/><polygon fill="#000000" points="213.25,423.0664,204.2049,420.1275,204.2049,426.0053,213.25,423.0664" style="stroke:#000000;stroke-width:1.0;"/><text fill="#000000" font-family="sans-serif" font-size="13" lengthAdjust="spacing" textLength="48" x="217.25" y="427.5669">explain</text><text fill="#000000" font-family="sans-serif" font-size="13" lengthAdjust="spacing" textLength="8" x="193.9812" y="430.9681">1</text><text fill="#000000" font-family="sans-serif" font-size="13" lengthAdjust="spacing" textLength="8" x="267.5748" y="430.8636">1</text></g><!--link Decision to Tradeoff--><g id="link_Decision_Tradeoff"><path codeLine="73" d="M361.5,483.38 C361.5,507.67 361.5,536.84 361.5,559.86 " fill="none" id="Decision-Tradeoff" style="stroke:#181818;stroke-width:1.0;"/><polygon fill="#000000" points="366.5,526.5664,369.4389,517.5213,363.5611,517.5213,366.5,526.5664" style="stroke:#000000;stroke-width:1.0;"/><text fill="#000000" font-family="sans-serif" font-size="13" lengthAdjust="spacing" textLength="55" x="375.5" y="526.0669">involves</text><text fill="#000000" font-family="sans-serif" font-size="13" lengthAdjust="spacing" textLength="8" x="352.9625" y="503.0392">1</text><text fill="#000000" font-family="sans-serif" font-size="13" lengthAdjust="spacing" textLength="7" x="353.9203" y="548.9983">*</text></g><!--link View to Model--><g id="link_View_Model"><path codeLine="74" d="M703.64,600.5 C734.69,600.5 773.41,600.5 808.2,600.5 " fill="none" id="View-Model" style="stroke:#181818;stroke-width:1.0;"/><polygon fill="#000000" points="731,589.0664,721.9549,586.1275,721.9549,592.0053,731,589.0664" style="stroke:#000000;stroke-width:1.0;"/><text fill="#000000" font-family="sans-serif" font-size="13" lengthAdjust="spacing" textLength="55" x="735" y="593.5669">contains</text><text fill="#000000" font-family="sans-serif" font-size="13" lengthAdjust="spacing" textLength="8" x="711.3352" y="596.6428">1</text><text fill="#000000" font-family="sans-serif" font-size="13" lengthAdjust="spacing" textLength="23" x="777.6506" y="613.1117">1..*</text></g><!--SRC=[XPDBRnKn38Nt-HNHNI9D9RPN5HjWWH12eeWL6pVnpAJDn6aUKoh4VyVpVbBkvahEvoEVCxQo4AFyw999BvzSme0noTz2yg-G3XgyohiKZAl6qZsenofGTdhtu7Fm5FTuLEJtDV0-4AZwWDQeirteFqAeVhelo0KrJzM2pIVKr_i7LCcqE8CQemh69qFkY7z0PIA_p3HQRD2btLHd6kEyPFEvz3Vewc1VdsHuKUGYFcLq2kDHwNi0ZLIMlL0XqyicpFyu_67msPDnhtvFQZ6q31xCvQ3EFWLfj9-Dqt4MRJ11Nzv996oyXRIoDTGjk2f3TIB-dZY5i7oH1X8lv96xI_28DLcDOR561skRj3QfZ75kujXQ78c0dW-2jmBs4UykvlBs8ek2_svktbnMgtYLxsGDyHGFfgeJzt33sj5LtdOjqaomSQVj5iknUxWFiHRfoiNmEgNQwPeeOOnLKYb_EjDu2WcOa8d4X8usUaENrHvr4cNWrA9OYblhVRoTwwhRB7S09zC3lLgdhiSuPRD6iUGtYJCx7soldWrpow5jjNSm_k95v1JdOazhUdQ3ydnbmmmjsNPq-C-PUvHlDx5k5E8l]--></g></svg>